<?xml version="1.0" encoding="utf-8"?>
<!-- Generator: Adobe Illustrator 24.0.1, SVG Export Plug-In . SVG Version: 6.00 Build 0)  -->
<svg version="1.1" id="Layer_1" xmlns="http://www.w3.org/2000/svg" xmlns:xlink="http://www.w3.org/1999/xlink" x="0px" y="0px"
	 viewBox="0 0 24 24" style="enable-background:new 0 0 24 24;" xml:space="preserve">
<style type="text/css">
	.st0{fill:#D8BF49;}
</style>
<path class="st0" d="M21.77,16.75l-1.15-1.65c-0.28-0.4-0.42-0.86-0.42-1.35v-1.67c0-2.17-0.85-4.22-2.38-5.75
	c-0.87-0.88-1.93-1.5-3.06-1.9V3.48c0-1.48-1.21-2.69-2.69-2.69S9.36,1.99,9.36,3.48v0.99C8.27,4.86,7.25,5.46,6.39,6.31
	c-1.57,1.56-2.47,3.71-2.47,5.91v1.5c0,0.42-0.13,0.82-0.37,1.17l-1.31,1.88c-0.42,0.6-0.47,1.39-0.13,2.04
	c0.34,0.65,1.01,1.06,1.75,1.06h4.8c0.04,1.85,1.55,3.34,3.4,3.34c1.86,0,3.36-1.49,3.4-3.34h4.68c0.74,0,1.42-0.41,1.76-1.07
	C22.24,18.15,22.19,17.36,21.77,16.75z M11.23,3.48c0-0.45,0.37-0.82,0.82-0.82c0.45,0,0.82,0.37,0.82,0.82v0.55
	c-0.25-0.03-0.5-0.08-0.76-0.08c-0.3,0.01-0.59,0.06-0.89,0.09V3.48z M12.05,21.34c-0.82,0-1.49-0.65-1.53-1.47h3.05
	C13.54,20.69,12.87,21.34,12.05,21.34z M20.14,18h-4.68h-1.87h-3.08H8.64H3.85l-0.08-0.16l1.31-1.88c0.46-0.66,0.7-1.43,0.7-2.24
	v-1.5c0-1.7,0.7-3.37,1.92-4.58c1.19-1.18,2.73-1.82,4.35-1.82c0.02,0,0.03,0,0.05,0c1.66,0.01,3.21,0.66,4.38,1.84
	c1.18,1.18,1.84,2.76,1.84,4.43v1.67c0,0.87,0.26,1.7,0.76,2.42l1.16,1.77C20.21,18,20.16,18,20.14,18z"/>
</svg>
