<?xml version="1.0" encoding="utf-8"?>
<!-- Generator: Adobe Illustrator 24.0.1, SVG Export Plug-In . SVG Version: 6.00 Build 0)  -->
<svg version="1.1" id="Layer_1" xmlns="http://www.w3.org/2000/svg" xmlns:xlink="http://www.w3.org/1999/xlink" x="0px" y="0px"
	 viewBox="0 0 24 24" style="enable-background:new 0 0 24 24;" xml:space="preserve">
<style type="text/css">
	.st0{fill:#565A5C;}
</style>
<g>
	<polygon class="st0" points="20.16,12.46 18.28,12.46 18.28,16.94 13.67,16.94 13.67,12.46 11.8,12.46 11.8,16.94 5.38,16.94 
		5.38,14.33 9.79,14.33 9.79,12.46 3.51,12.46 3.51,16.94 1.1,16.94 1.1,18.81 3.51,18.81 3.51,23.29 5.38,23.29 5.38,18.81 
		11.8,18.81 11.8,23.29 13.67,23.29 13.67,18.81 18.28,18.81 18.28,23.29 20.16,23.29 20.16,18.81 22.83,18.81 22.83,16.94 
		20.16,16.94 	"/>
	<path class="st0" d="M20.16,7.97V3.3h-1.87v3L12,0.71L1.05,10.45h21.9L20.16,7.97z M5.97,8.58L12,3.21l6.03,5.37H5.97z"/>
</g>
</svg>
