<?xml version="1.0" encoding="utf-8"?>
<!-- Generator: Adobe Illustrator 24.0.1, SVG Export Plug-In . SVG Version: 6.00 Build 0)  -->
<svg version="1.1" id="Layer_1" xmlns="http://www.w3.org/2000/svg" xmlns:xlink="http://www.w3.org/1999/xlink" x="0px" y="0px"
	 viewBox="0 0 24 24" style="enable-background:new 0 0 24 24;" xml:space="preserve">
<style type="text/css">
	.st0{fill:#565A5C;}
</style>
<path class="st0" d="M24,5.6h-3.21V5.31c0-2.14-1.74-3.88-3.88-3.88h-0.11h-1.85H5.97c-2.14,0-3.88,1.74-3.88,3.88V5.6H0v1.85h2.09
	v11.82h4v3.3h14.71V7.45H24V5.6z M3.93,17.42V7.45V5.6V5.31c0-1.12,0.91-2.03,2.03-2.03h8.98h1.85h0.11c1.12,0,2.03,0.91,2.03,2.03
	V5.6h-2.03c0.01-0.03,0-0.06,0.01-0.09l0.26-0.89L15.42,4.1l-0.26,0.89c-0.14,0.48-0.21,0.97-0.21,1.46v10.97H7.93H6.08H3.93z
	 M18.94,20.72H7.93v-1.45h8.86V7.45h2.15V20.72z"/>
</svg>
