<?xml version="1.0" encoding="utf-8"?>
<!-- Generator: Adobe Illustrator 24.0.1, SVG Export Plug-In . SVG Version: 6.00 Build 0)  -->
<svg version="1.1" id="Layer_1" xmlns="http://www.w3.org/2000/svg" xmlns:xlink="http://www.w3.org/1999/xlink" x="0px" y="0px"
	 viewBox="0 0 24 24" style="enable-background:new 0 0 24 24;" xml:space="preserve">
<style type="text/css">
	.st0{fill:#565A5C;}
</style>
<g>
	<path class="st0" d="M12,1.14C6.01,1.14,1.14,6.01,1.14,12c0,1.98,0.54,3.91,1.55,5.6l-1.36,5.08l5.08-1.36
		c1.7,1,3.67,1.55,5.59,1.55c5.99,0,10.86-4.87,10.86-10.86S17.99,1.14,12,1.14z M12,20.99c-1.68,0-3.48-0.54-4.94-1.48l-0.35-0.22
		l-2.75,0.74l0.74-2.75l-0.23-0.35C3.52,15.47,3.01,13.76,3.01,12c0-4.96,4.03-8.99,8.99-8.99s8.99,4.03,8.99,8.99
		S16.96,20.99,12,20.99z"/>
	<path class="st0" d="M11.97,6.2c-1.73,0-3.23,1.23-3.58,2.92L8.2,10.03l1.83,0.37l0.19-0.92c0.17-0.82,0.9-1.42,1.75-1.42
		c0.98,0,1.78,0.8,1.78,1.78s-0.8,1.78-1.78,1.78h-0.94v1.87v1.89h1.87v-2.03c1.56-0.42,2.72-1.83,2.72-3.52
		C15.62,7.83,13.98,6.2,11.97,6.2z"/>
	<rect x="11.03" y="16.36" class="st0" width="1.87" height="1.42"/>
</g>
</svg>
